<?xml version="1.0" standalone="no"?>
<!DOCTYPE svg PUBLIC "-//W3C//DTD SVG 20010904//EN"
 "http://www.w3.org/TR/2001/REC-SVG-20010904/DTD/svg10.dtd">
<svg version="1.0" xmlns="http://www.w3.org/2000/svg"
 width="369.000000pt" height="369.000000pt" viewBox="0 0 369.000000 369.000000"
 preserveAspectRatio="xMidYMid meet">
<metadata>
Created by potrace 1.11, written by Peter Selinger 2001-2013
</metadata>
<g transform="translate(0.000000,369.000000) scale(0.100000,-0.100000)"
fill="#000000" stroke="none">
<path d="M0 2395 l0 -555 545 0 545 0 2 -542 3 -543 550 0 550 0 3 553 2 552
-545 0 -545 0 0 545 0 545 -555 0 -555 0 0 -555z m906 410 c1 -16 5 -38 9 -47
10 -25 -37 -53 -64 -38 -12 6 -21 17 -21 25 0 17 16 20 25 5 10 -15 35 -12 35
5 0 8 -7 15 -15 15 -20 0 -19 16 2 24 12 5 13 10 5 18 -8 8 -15 8 -27 -2 -20
-17 -32 -5 -15 15 8 9 25 15 39 13 21 -2 26 -9 27 -33z m104 25 c0 -5 -11 -10
-25 -10 -14 0 -25 -4 -25 -10 0 -5 8 -10 18 -10 44 0 56 -50 18 -75 -19 -13
-29 -14 -45 -5 -32 16 -26 33 9 25 26 -6 30 -4 30 15 0 19 -4 21 -31 15 -30
-7 -32 -6 -26 16 4 13 7 30 7 37 0 7 14 12 35 12 19 0 35 -4 35 -10z m-450
-159 c47 -25 71 -60 77 -113 6 -53 -16 -103 -52 -120 -32 -15 -31 -20 8 -39
47 -22 80 -90 73 -151 -7 -64 -28 -102 -73 -130 -36 -22 -49 -23 -230 -26
l-193 -4 0 301 0 301 178 0 c153 0 182 -2 212 -19z m420 -195 l0 -53 -39 -7
c-46 -7 -86 -44 -95 -87 -3 -18 -6 -78 -6 -135 l0 -104 -50 0 -50 0 0 215 0
215 50 0 c48 0 50 -1 50 -27 l0 -26 23 21 c26 24 63 40 95 41 20 1 22 -3 22
-53z m1020 -726 c0 -5 -11 -10 -25 -10 -31 0 -33 -17 -2 -22 16 -2 23 -11 25
-31 6 -51 -38 -75 -74 -40 -20 21 -1 31 22 12 13 -10 17 -10 25 2 14 22 4 34
-25 31 -23 -2 -26 1 -26 26 0 16 3 32 7 35 10 11 73 8 73 -3z m98 -9 c3 -10
-2 -12 -21 -7 -17 4 -27 1 -30 -8 -4 -10 2 -16 21 -18 22 -2 27 -8 27 -32 0
-36 -27 -56 -52 -40 -22 13 -30 89 -12 110 15 18 61 15 67 -5z m-544 -155
c100 -42 123 -168 42 -233 l-34 -26 31 -16 c50 -25 77 -74 77 -141 0 -71 -27
-116 -90 -147 -41 -21 -58 -23 -222 -23 l-178 0 0 300 0 300 170 0 c123 0 180
-4 204 -14z m450 -157 c22 -6 52 -24 68 -39 28 -28 28 -29 28 -167 1 -76 5
-157 9 -180 l8 -43 -54 0 c-37 0 -55 4 -59 14 -5 12 -12 11 -47 -5 -57 -25
-140 -25 -182 1 -85 52 -82 180 5 225 16 9 71 24 120 34 50 10 94 21 97 25 3
3 1 17 -5 30 -23 51 -143 41 -150 -13 -3 -22 -7 -23 -53 -19 -27 3 -52 8 -55
10 -9 10 22 72 47 95 44 39 144 54 223 32z"/>
<path d="M290 2524 l0 -76 96 4 c86 3 98 5 115 27 26 32 24 67 -6 96 -22 23
-32 25 -115 25 l-90 0 0 -76z"/>
<path d="M290 2275 l0 -85 95 0 c52 0 105 5 119 11 32 15 50 66 37 102 -18 46
-46 57 -153 57 l-98 0 0 -85z"/>
<path d="M2050 1669 c0 -24 23 -21 28 4 2 10 -3 17 -12 17 -10 0 -16 -9 -16
-21z"/>
<path d="M1300 1435 l0 -75 84 0 c101 0 136 19 136 76 0 59 -25 74 -130 74
l-90 0 0 -75z"/>
<path d="M1300 1185 l0 -85 99 0 c84 0 102 3 125 21 36 28 37 89 1 124 -22 23
-31 25 -125 25 l-100 0 0 -85z"/>
<path d="M1955 1199 c-16 -5 -49 -13 -72 -19 -69 -17 -83 -75 -24 -100 37 -15
104 2 126 33 15 22 21 98 8 96 -5 -1 -21 -5 -38 -10z"/>
<path d="M2112 2689 c-89 -16 -126 -52 -74 -70 17 -6 33 -20 36 -32 8 -29 7
-385 0 -414 -3 -12 -15 -25 -25 -28 -26 -9 -24 -41 4 -49 43 -11 143 -6 163 9
19 14 18 15 -8 37 -20 18 -28 35 -33 80 -7 61 0 102 16 93 5 -4 44 -50 86
-103 42 -53 84 -102 92 -109 9 -7 35 -13 59 -13 80 0 110 38 49 64 -36 15
-145 129 -173 182 l-18 33 29 32 c17 17 50 41 74 53 25 11 46 27 49 33 8 28
-98 44 -152 23 -30 -11 -33 -26 -11 -50 14 -16 11 -21 -36 -64 -39 -35 -54
-44 -61 -34 -5 7 -6 83 -2 169 7 175 9 171 -64 158z"/>
<path d="M2580 2660 c-38 -38 -14 -84 43 -84 42 0 67 18 67 50 0 51 -71 73
-110 34z"/>
<path d="M3617 2523 c-23 -12 -40 -13 -96 -4 -122 19 -219 -32 -237 -125 -7
-41 9 -105 31 -124 13 -11 11 -16 -15 -40 -36 -33 -39 -71 -9 -101 l21 -21
-26 -27 c-14 -15 -26 -37 -26 -48 0 -38 47 -82 108 -99 145 -43 312 31 312
137 0 86 -36 105 -179 95 -114 -8 -154 2 -149 37 3 21 8 22 83 23 90 0 127 15
168 64 31 37 43 89 29 129 -9 25 -7 32 14 52 25 24 33 70 12 68 -7 -1 -26 -8
-41 -16z m-98 -79 c31 -39 29 -107 -4 -139 -56 -57 -135 -16 -135 70 0 60 29
95 80 95 30 0 43 -6 59 -26z m59 -360 c29 -20 28 -45 -4 -75 -21 -19 -38 -24
-97 -27 -62 -3 -76 -1 -99 18 -30 23 -37 60 -15 78 7 6 49 13 92 15 44 1 85 4
90 5 6 1 21 -5 33 -14z"/>
<path d="M1309 2517 c-66 -19 -108 -53 -135 -111 -29 -63 -31 -144 -5 -201 40
-88 147 -140 238 -116 53 15 127 70 131 99 4 30 -18 28 -64 -3 -91 -62 -214
-8 -214 95 l0 30 135 0 c132 0 136 1 146 23 13 30 -2 93 -32 131 -41 53 -122
74 -200 53z m112 -76 c17 -17 29 -40 29 -55 l0 -26 -95 0 -95 0 0 26 c0 39 50
84 95 84 27 0 44 -8 66 -29z"/>
<path d="M1733 2520 c-83 -17 -130 -58 -115 -100 15 -42 43 -38 91 10 68 69
141 49 141 -37 l0 -41 -73 1 c-123 1 -190 -48 -190 -137 0 -108 101 -163 212
-116 l52 23 23 -22 c26 -25 44 -26 91 -7 41 18 47 48 11 64 -23 10 -24 15 -28
149 -2 83 -9 147 -16 160 -25 46 -117 70 -199 53z m117 -275 c0 -67 -22 -95
-75 -95 -43 0 -85 37 -85 75 0 14 11 37 25 50 20 21 34 25 80 25 l55 0 0 -55z"/>
<path d="M2610 2513 c-30 -7 -63 -22 -74 -32 -18 -19 -18 -19 12 -35 27 -14
31 -23 37 -71 4 -30 5 -89 3 -131 -3 -64 -7 -79 -26 -94 -26 -21 -29 -45 -6
-54 32 -12 150 -6 170 9 19 15 19 15 0 30 -10 8 -24 16 -30 18 -8 3 -10 58 -8
179 1 131 -1 178 -10 186 -9 6 -31 5 -68 -5z"/>
<path d="M3018 2520 c-15 -5 -40 -17 -57 -29 -37 -27 -41 -26 -41 4 0 21 -5
25 -28 25 -40 0 -119 -29 -126 -46 -3 -9 6 -20 24 -29 29 -15 30 -17 32 -103
4 -160 2 -174 -29 -200 -27 -22 -27 -23 -9 -37 27 -21 155 -20 182 0 19 15 19
15 0 30 -10 8 -24 16 -30 18 -16 6 -14 194 3 235 16 39 37 52 85 52 57 0 69
-29 70 -162 l1 -110 -30 -24 c-29 -24 -29 -25 -11 -39 20 -15 138 -21 170 -9
23 9 20 33 -6 54 -21 17 -23 28 -28 152 -4 105 -9 140 -23 161 -32 49 -94 73
-149 57z"/>
<path d="M2559 1591 c-73 -23 -89 -52 -39 -70 28 -9 30 -13 30 -61 0 -49 -1
-51 -22 -43 -13 4 -53 8 -89 8 -83 0 -136 -31 -168 -99 -47 -95 -37 -208 24
-275 60 -66 140 -75 217 -25 21 13 40 24 42 24 3 0 6 -12 8 -27 3 -25 6 -28
36 -25 89 9 142 51 89 71 -14 6 -27 21 -31 36 -4 14 -6 124 -6 243 0 119 1
225 0 235 0 19 -42 22 -91 8z m-33 -242 c22 -21 24 -30 24 -126 0 -97 -2 -106
-25 -128 -48 -49 -131 -22 -161 51 -17 40 -18 119 -3 163 24 68 113 89 165 40z"/>
</g>
</svg>
